PathFileType	4	(X/Y/Z)	C:/Users/opensim2020/Desktop/walking_exp_matlab/subject02_walking05_straight_03.trc	
DataRate	CameraRate	NumFrames	NumMarkers	Units	OrigDataRate	OrigDataStartFrame	OrigNumFrames	
100.00	100.00	4	42	mm	100.00	2273	224	
Frame#	Time	LFHD			RFHD			LBHD			RBHD			C7			T10			CLAV			STRN			RBAK			LSHO			LUPA			LELB			LFRM			LWRA			LWRB			LFIN			RSHO			RUPA			RELB			RFRM			RWRA			RWRB			RFIN			LASI			RASI			LPSI			RPSI			LTHI			LKNE			LTIB			LANK			LHEE			LTOE			RTHI			RKNE			RTIB			RANK			RHEE			RTOE			*39			*40			*41			
		X1	Y1	Z1	X2	Y2	Z2	X3	Y3	Z3	X4	Y4	Z4	X5	Y5	Z5	X6	Y6	Z6	X7	Y7	Z7	X8	Y8	Z8	X9	Y9	Z9	X10	Y10	Z10	X11	Y11	Z11	X12	Y12	Z12	X13	Y13	Z13	X14	Y14	Z14	X15	Y15	Z15	X16	Y16	Z16	X17	Y17	Z17	X18	Y18	Z18	X19	Y19	Z19	X20	Y20	Z20	X21	Y21	Z21	X22	Y22	Z22	X23	Y23	Z23	X24	Y24	Z24	X25	Y25	Z25	X26	Y26	Z26	X27	Y27	Z27	X28	Y28	Z28	X29	Y29	Z29	X30	Y30	Z30	X31	Y31	Z31	X32	Y32	Z32	X33	Y33	Z33	X34	Y34	Z34	X35	Y35	Z35	X36	Y36	Z36	X37	Y37	Z37	X38	Y38	Z38	X39	Y39	Z39	X40	Y40	Z40	X41	Y41	Z41	X42	Y42	Z42	

197	1.960	-1113.32544	802.49524	1754.19189	-971.74445	776.34485	1734.51843	-1145.88220	697.63324	1650.30103	-1008.82025	660.52344	1627.06079	-1077.16187	646.17462	1522.36694	-1074.73767	589.72589	1249.50146	-1072.86169	787.76001	1455.94116	-1063.33582	836.13770	1282.41541	-1018.36847	581.78522	1350.46399	-1245.69312	741.92444	1503.30713	-1347.03076	789.50708	1319.89954	-1375.40442	843.11206	1190.45398	-1386.55005	917.61304	1080.08948	-1340.74683	1017.04089	994.16284	-1384.54761	985.67847	977.73785	-1385.59607	1036.49255	936.15906	-883.21143	708.22552	1486.83704	-803.57233	665.50067	1297.66675	-779.07025	677.59906	1152.55151	-754.86969	714.06586	1037.95557	-766.54889	776.68903	917.10559	-740.50189	726.76917	908.45215	-732.68201	770.01270	850.31384	-1200.82312	822.85297	989.40759	-944.91943	816.21991	977.12555	-1124.82336	611.29340	1029.78589	-1011.36395	602.37537	1026.27625	-1247.34570	729.42279	676.78522	-1218.00085	669.45258	479.88300	-1224.22339	588.66095	302.06909	-1185.81934	560.70258	79.33739	-1140.07275	515.87878	53.98580	-1177.69763	715.57361	37.18129	-865.88898	802.27478	676.34375	-899.99249	875.73865	480.79236	-894.86108	887.09265	293.58932	-923.01770	935.70135	105.35078	-986.19287	936.57507	45.95044	-871.99591	1086.62207	90.52570	-1049.30359	671.39423	1792.63635	-3357.53760	2845.82544	1033.86340			 
198	1.970	-1111.71387	811.90619	1752.94250	-970.06097	785.53735	1733.25452	-1144.52271	707.25409	1648.96082	-1007.29785	670.30487	1625.38391	-1075.81384	655.80304	1521.08533	-1073.29578	599.21417	1248.28967	-1071.56714	797.42938	1454.58362	-1062.12732	845.63696	1280.98828	-1017.16980	591.35724	1349.22986	-1244.22168	751.65735	1502.10803	-1345.36536	800.80469	1319.23669	-1373.87231	856.14166	1190.46814	-1384.28882	932.54810	1081.23535	-1338.19653	1033.24304	997.21649	-1382.00220	1002.23260	980.10132	-1382.86523	1053.84839	939.51190	-881.88525	717.99976	1485.35339	-802.15540	674.47900	1296.62842	-777.96155	685.20447	1151.07007	-753.35571	720.81860	1036.39319	-765.00647	782.18506	914.89551	-738.80066	732.07495	906.82928	-730.80750	774.84888	848.26282	-1199.81897	831.89630	988.22229	-943.98193	826.13031	975.59601	-1123.18640	620.27325	1028.76477	-1009.73865	612.15149	1024.92590	-1246.80518	735.21039	676.15833	-1217.35425	673.77985	479.70966	-1223.48474	590.99487	302.78656	-1185.35559	561.02466	80.08659	-1139.48059	516.14227	55.35474	-1177.51416	715.74377	36.88116	-866.14471	809.90277	673.90088	-901.38324	884.83630	479.36765	-894.60016	903.73676	293.10205	-920.86786	960.76392	106.47282	-983.62396	963.80536	46.94508	-871.24280	1113.21252	96.69927	-1047.91528	680.75061	1791.21558	-3360.35718	2845.12598	1033.79919			 
199	1.980	-1110.32031	821.41882	1751.83643	-968.64502	794.93542	1731.94336	-1143.12073	716.90564	1647.63855	-1006.08740	679.66803	1624.08618	-1074.30078	665.55981	1519.79578	-1071.75903	608.81604	1247.09473	-1070.13806	807.08466	1453.20081	-1060.82068	855.23730	1279.63159	-1015.78143	600.93311	1347.94824	-1242.69104	761.41901	1500.87915	-1343.84778	811.93945	1318.51208	-1372.11670	868.78906	1190.28015	-1382.14441	946.95081	1082.14429	-1335.53113	1048.91895	1000.02496	-1379.31372	1018.23450	982.21021	-1379.99390	1070.58594	942.61554	-880.41064	727.83807	1483.88696	-800.80939	683.30121	1295.36072	-776.49042	693.32642	1149.84924	-751.73010	727.52045	1034.82751	-762.83997	787.78583	912.69366	-736.92950	737.64697	905.24396	-728.97583	779.64545	846.18085	-1198.79626	841.03571	986.96783	-943.09149	836.09644	973.92169	-1121.36072	629.52393	1027.68738	-1007.74005	622.04193	1023.55664	-1246.27588	741.21399	675.63855	-1216.73792	678.34131	479.62631	-1222.60803	593.50568	303.62741	-1185.02417	561.41302	81.02104	-1139.00940	516.33765	56.60648	-1177.97119	715.87500	37.02333	-866.34674	817.57672	671.32959	-902.96906	893.89124	477.68335	-894.54169	919.57385	292.77768	-919.17249	984.04474	107.98670	-981.43176	988.53925	48.42383	-870.71851	1137.81519	102.84373	-1046.54272	689.97418	1789.89148	-3360.30103	2845.22754	1033.83752			 
200	1.990	-1108.40735	830.85114	1750.56177	-966.93158	804.53210	1730.60852	-1141.48071	726.55267	1646.31848	-1004.39941	689.43835	1622.53491	-1072.69543	675.25165	1518.55579	-1070.18384	618.51660	1245.87463	-1068.57446	816.85675	1451.84888	-1059.35547	864.86237	1278.25317	-1014.34198	610.23584	1346.61145	-1241.05579	771.13306	1499.64001	-1341.97314	822.99506	1317.67773	-1370.26733	881.11560	1189.96313	-1379.49683	960.78815	1082.81299	-1332.73462	1064.03247	1002.58154	-1376.43945	1033.67578	984.09241	-1376.98022	1086.63989	945.39319	-878.75171	737.67480	1482.30847	-799.36304	692.18182	1293.90894	-774.88837	701.38483	1148.52393	-750.02625	734.43256	1033.13831	-760.89874	793.81909	910.50891	-735.02228	743.27820	903.54810	-726.95490	784.61060	843.97180	-1197.78455	850.34210	985.53943	-942.23022	846.14380	972.10089	-1119.45190	638.75751	1026.64624	-1005.61194	632.01740	1022.21991	-1245.56104	747.42194	675.05658	-1216.07629	683.21881	479.52667	-1221.90002	596.14355	304.67847	-1184.72510	561.78973	82.07499	-1138.50073	516.85382	58.13457	-1178.12268	715.95447	36.96088	-866.40363	825.64240	669.00793	-904.48438	903.44897	475.85892	-894.84686	934.58386	292.52780	-917.96167	1005.01379	109.52322	-979.52740	1011.33875	49.81894	-870.01764	1160.04004	108.30526	-1044.63306	699.50464	1788.19946	-3360.24927	2845.15527	1033.84192			 
